<svg width="1285" height="761" viewBox="0 0 1285 761" fill="none" xmlns="http://www.w3.org/2000/svg">
<path fill-rule="evenodd" clip-rule="evenodd" d="M175.417 718.699V760.169H176.417V718.699H242.391V760.169H243.391V718.699H309.364V760.169H310.364V718.699H376.338V760.169H377.338V718.699H443.312V760.169H444.312V718.699H510.285V760.169H511.285V718.699H577.259V760.169H578.259V718.699H644.232V760.169H645.232V718.699H711.206V760.169H712.206V718.699H778.18V760.169H779.18V718.699H845.153V760.169H846.153V718.699H912.127V760.169H913.127V718.699H979.1V760.169H980.1V718.699H1046.07V760.169H1047.07V718.699H1113.05V760.169H1114.05V718.699H1180.02V760.169H1181.02V718.699L1246.99 718.699V760.169H1247.99V718.699H1285V717.699H1247.99V651.725H1285V650.725H1247.99V585.645H1285V584.645H1247.99V518.671H1285V517.671H1247.99V452.59H1285V451.59H1247.99V385.617H1285V384.617H1247.99V318.643H1285V317.643H1247.99V252.563H1285V251.563H1247.99V185.589H1285V184.589H1247.99V119.508H1285V118.508H1247.99V52.5348H1285V51.5348H1247.99V-13.5459H1285V-14.5459H1247.99V-80.5195H1285V-81.5195H1247.99V-122.99H1246.99V-81.5195L1181.02 -81.5194V-122.99H1180.02V-81.5194L1114.05 -81.5194V-122.99H1113.05V-81.5194L1047.07 -81.5194V-122.99H1046.07V-81.5194H980.1V-122.99H979.1V-81.5194L913.127 -81.5194V-122.99H912.127V-81.5194L846.153 -81.5194V-122.99H845.153V-81.5194L779.18 -81.5194V-122.99H778.18V-81.5194H712.206V-122.99H711.206V-81.5194L645.232 -81.5194V-122.99H644.232V-81.5194L578.259 -81.5194V-122.99H577.259V-81.5194H511.285V-122.99H510.285V-81.5194L444.312 -81.5194V-122.99H443.312V-81.5194L377.338 -81.5194V-122.99H376.338V-81.5194L310.364 -81.5194V-122.99H309.364V-81.5194H243.391V-122.99H242.391V-81.5194L176.417 -81.5194V-122.99H175.417V-81.5194L109.443 -81.5194V-122.99H108.443V-81.5194L42.8838 -81.5194V-122.99H41.8838V-81.5194H0V-80.5194H41.8838V-14.5458H0V-13.5458H41.8838V51.5348H0V52.5348H41.8838V118.508H0V119.508H41.8838V184.589H0V185.589H41.8838V251.563H0V252.563H41.8838V317.643H0.892578V318.643H41.8838V384.617H0.892578V385.617H41.8838V451.59H0.892578V452.59H41.8838V517.671H0.892578V518.671H41.8838V584.645H0.892578V585.645H41.8838V650.725H0.892578V651.725H41.8838V717.699H0.892578V718.699H41.8838V760.169H42.8838V718.699H108.443V760.169H109.443V718.699H175.417ZM42.8838 -80.5194V-14.5458L108.443 -14.5458V-80.5194L42.8838 -80.5194ZM109.443 -80.5194V-14.5458H175.417V-80.5194L109.443 -80.5194ZM176.417 -80.5194V-14.5458H242.391V-80.5194L176.417 -80.5194ZM243.391 -80.5194V-14.5458L309.364 -14.5458V-80.5194H243.391ZM310.364 -80.5194V-14.5458H376.338V-80.5194L310.364 -80.5194ZM377.338 -80.5194V-14.5458H443.312V-80.5194L377.338 -80.5194ZM444.312 -80.5194V-14.5458L510.285 -14.5458V-80.5194L444.312 -80.5194ZM511.285 -80.5194V-14.5458H577.259V-80.5194H511.285ZM578.259 -80.5194V-14.5458L644.232 -14.5458V-80.5194L578.259 -80.5194ZM645.232 -80.5194V-14.5458H711.206V-80.5194L645.232 -80.5194ZM712.206 -80.5194V-14.5458H778.18V-80.5194H712.206ZM779.18 -80.5194V-14.5458H845.153V-80.5194L779.18 -80.5194ZM846.153 -80.5194V-14.5458H912.127V-80.5194L846.153 -80.5194ZM913.127 -80.5194V-14.5458L979.1 -14.5458V-80.5194L913.127 -80.5194ZM980.1 -80.5194V-14.5458H1046.07V-80.5194H980.1ZM1047.07 -80.5194V-14.5458L1113.05 -14.5458V-80.5194L1047.07 -80.5194ZM1114.05 -80.5194V-14.5458H1180.02V-80.5194L1114.05 -80.5194ZM1181.02 -80.5194V-14.5458L1246.99 -14.5459V-80.5195L1181.02 -80.5194ZM1246.99 651.725V717.699L1181.02 717.699V651.725L1246.99 651.725ZM1246.99 585.645V650.725L1181.02 650.725V585.645L1246.99 585.645ZM1246.99 518.671V584.645L1181.02 584.645V518.671L1246.99 518.671ZM1246.99 452.59V517.671L1181.02 517.671V452.59L1246.99 452.59ZM1246.99 385.617V451.59L1181.02 451.59V385.617L1246.99 385.617ZM1246.99 318.643V384.617L1181.02 384.617V318.643L1246.99 318.643ZM1246.99 252.563V317.643L1181.02 317.643V252.563L1246.99 252.563ZM1246.99 185.589V251.563L1181.02 251.563V185.589L1246.99 185.589ZM1246.99 119.508V184.589L1181.02 184.589V119.508L1246.99 119.508ZM1246.99 52.5348V118.508L1181.02 118.508V52.5348L1246.99 52.5348ZM1246.99 -13.5459V51.5348L1181.02 51.5348V-13.5458L1246.99 -13.5459ZM1180.02 -13.5458H1114.05V51.5348H1180.02V-13.5458ZM1180.02 52.5348H1114.05V118.508H1180.02V52.5348ZM1180.02 119.508H1114.05V184.589H1180.02V119.508ZM1180.02 185.589H1114.05V251.563H1180.02V185.589ZM1180.02 252.563H1114.05V317.643H1180.02V252.563ZM1180.02 318.643H1114.05V384.617H1180.02V318.643ZM1180.02 385.617H1114.05V451.59H1180.02V385.617ZM1180.02 452.59H1114.05V517.671H1180.02V452.59ZM1180.02 518.671H1114.05V584.645H1180.02V518.671ZM1180.02 585.645H1114.05V650.725H1180.02V585.645ZM1180.02 651.725H1114.05V717.699H1180.02V651.725ZM1113.05 651.725V717.699H1047.07V651.725H1113.05ZM1113.05 585.645V650.725H1047.07V585.645H1113.05ZM1113.05 518.671V584.645H1047.07V518.671H1113.05ZM1113.05 452.59V517.671H1047.07V452.59H1113.05ZM1113.05 385.617V451.59H1047.07V385.617H1113.05ZM1113.05 318.643V384.617H1047.07V318.643H1113.05ZM1113.05 252.563V317.643H1047.07V252.563H1113.05ZM1113.05 185.589V251.563H1047.07V185.589H1113.05ZM1113.05 119.508V184.589H1047.07V119.508L1113.05 119.508ZM1113.05 52.5348V118.508L1047.07 118.508V52.5348L1113.05 52.5348ZM1113.05 -13.5458V51.5348L1047.07 51.5348V-13.5458L1113.05 -13.5458ZM1046.07 -13.5458H980.1V51.5348H1046.07V-13.5458ZM1046.07 52.5348H980.1V118.508H1046.07V52.5348ZM1046.07 119.508H980.1V184.589H1046.07V119.508ZM1046.07 185.589H980.1V251.563H1046.07V185.589ZM1046.07 252.563H980.1V317.643H1046.07V252.563ZM1046.07 318.643H980.1V384.617H1046.07V318.643ZM1046.07 385.617H980.1V451.59H1046.07V385.617ZM1046.07 452.59H980.1V517.671H1046.07V452.59ZM1046.07 518.671H980.1V584.645H1046.07V518.671ZM1046.07 585.645H980.1V650.725H1046.07V585.645ZM1046.07 651.725H980.1V717.699H1046.07V651.725ZM979.1 651.725V717.699H913.127V651.725H979.1ZM979.1 585.645V650.725H913.127V585.645H979.1ZM979.1 518.671V584.645H913.127V518.671H979.1ZM979.1 452.59V517.671H913.127V452.59H979.1ZM979.1 385.617V451.59H913.127V385.617H979.1ZM979.1 318.643V384.617H913.127V318.643H979.1ZM979.1 252.563V317.643H913.127V252.563H979.1ZM979.1 185.589V251.563H913.127V185.589H979.1ZM979.1 119.508V184.589H913.127V119.508H979.1ZM979.1 52.5348V118.508H913.127V52.5348H979.1ZM979.1 -13.5458V51.5348H913.127V-13.5458L979.1 -13.5458ZM912.127 -13.5458H846.153V51.5348H912.127V-13.5458ZM912.127 52.5348H846.153V118.508H912.127V52.5348ZM912.127 119.508H846.153V184.589H912.127V119.508ZM912.127 185.589H846.153V251.563H912.127V185.589ZM912.127 252.563H846.153V317.643H912.127V252.563ZM912.127 318.643H846.153V384.617H912.127V318.643ZM912.127 385.617H846.153V451.59H912.127V385.617ZM912.127 452.59H846.153V517.671H912.127V452.59ZM912.127 518.671H846.153V584.645H912.127V518.671ZM912.127 585.645H846.153V650.725H912.127V585.645ZM912.127 651.725H846.153V717.699H912.127V651.725ZM845.153 651.725V717.699H779.18V651.725H845.153ZM845.153 585.645V650.725H779.18V585.645H845.153ZM845.153 518.671V584.645H779.18V518.671H845.153ZM845.153 452.59V517.671H779.18V452.59H845.153ZM845.153 385.617V451.59H779.18V385.617H845.153ZM845.153 318.643V384.617H779.18V318.643H845.153ZM845.153 252.563V317.643H779.18V252.563H845.153ZM845.153 185.589V251.563H779.18V185.589H845.153ZM845.153 119.508V184.589H779.18V119.508H845.153ZM845.153 52.5348V118.508H779.18V52.5348H845.153ZM845.153 -13.5458V51.5348H779.18V-13.5458H845.153ZM42.8838 -13.5458V51.5348H108.443V-13.5458L42.8838 -13.5458ZM109.443 -13.5458V51.5348L175.417 51.5348V-13.5458H109.443ZM176.417 -13.5458V51.5348H242.391V-13.5458H176.417ZM243.391 -13.5458V51.5348H309.364V-13.5458L243.391 -13.5458ZM310.364 -13.5458V51.5348H376.338V-13.5458H310.364ZM377.338 -13.5458V51.5348H443.312V-13.5458H377.338ZM444.312 -13.5458V51.5348L510.285 51.5348V-13.5458L444.312 -13.5458ZM511.285 -13.5458V51.5348H577.259V-13.5458H511.285ZM578.259 -13.5458V51.5348H644.232V-13.5458L578.259 -13.5458ZM645.232 -13.5458V51.5348H711.206V-13.5458H645.232ZM712.206 -13.5458V51.5348H778.18V-13.5458H712.206ZM778.18 651.725V717.699H712.206V651.725H778.18ZM778.18 585.645V650.725H712.206V585.645H778.18ZM778.18 518.671V584.645H712.206V518.671H778.18ZM778.18 452.59V517.671H712.206V452.59H778.18ZM778.18 385.617V451.59H712.206V385.617H778.18ZM778.18 318.643V384.617H712.206V318.643H778.18ZM778.18 252.563V317.643H712.206V252.563H778.18ZM778.18 185.589V251.563H712.206V185.589H778.18ZM778.18 119.508V184.589H712.206V119.508H778.18ZM778.18 52.5348V118.508H712.206V52.5348H778.18ZM42.8838 52.5348V118.508H108.443V52.5348H42.8838ZM109.443 52.5348V118.508L175.417 118.508V52.5348L109.443 52.5348ZM176.417 52.5348V118.508H242.391V52.5348H176.417ZM243.391 52.5348V118.508H309.364V52.5348H243.391ZM310.364 52.5348V118.508H376.338V52.5348H310.364ZM377.338 52.5348V118.508H443.312V52.5348H377.338ZM444.312 52.5348V118.508L510.285 118.508V52.5348L444.312 52.5348ZM511.285 52.5348V118.508H577.259V52.5348H511.285ZM578.259 52.5348V118.508H644.232V52.5348H578.259ZM645.232 52.5348V118.508H711.206V52.5348H645.232ZM711.206 651.725V717.699H645.232V651.725H711.206ZM711.206 585.645V650.725H645.232V585.645H711.206ZM711.206 518.671V584.645H645.232V518.671H711.206ZM711.206 452.59V517.671H645.232V452.59H711.206ZM711.206 385.617V451.59H645.232V385.617H711.206ZM711.206 318.643V384.617H645.232V318.643H711.206ZM711.206 252.563V317.643H645.232V252.563H711.206ZM711.206 185.589V251.563H645.232V185.589H711.206ZM711.206 119.508V184.589H645.232V119.508H711.206ZM42.8838 119.508V184.589H108.443V119.508H42.8838ZM109.443 119.508V184.589H175.417V119.508L109.443 119.508ZM176.417 119.508V184.589H242.391V119.508H176.417ZM243.391 119.508V184.589H309.364V119.508H243.391ZM310.364 119.508V184.589L376.338 184.589V119.508H310.364ZM377.338 119.508V184.589H443.312V119.508H377.338ZM444.312 119.508V184.589H510.285V119.508L444.312 119.508ZM511.285 119.508V184.589H577.259V119.508H511.285ZM578.259 119.508V184.589H644.232V119.508H578.259ZM644.232 651.725V717.699H578.259V651.725H644.232ZM644.232 585.645V650.725H578.259V585.645H644.232ZM644.232 518.671V584.645H578.259V518.671H644.232ZM644.232 452.59V517.671H578.259V452.59H644.232ZM644.232 385.617V451.59H578.259V385.617H644.232ZM644.232 318.643V384.617H578.259V318.643H644.232ZM644.232 252.563V317.643H578.259V252.563H644.232ZM644.232 185.589V251.563H578.259V185.589H644.232ZM42.8838 185.589V251.563H108.443V185.589H42.8838ZM109.443 185.589V251.563H175.417V185.589H109.443ZM176.417 185.589V251.563H242.391V185.589H176.417ZM243.391 185.589V251.563H309.364V185.589H243.391ZM310.364 185.589V251.563L376.338 251.563V185.589L310.364 185.589ZM377.338 185.589V251.563H443.312V185.589H377.338ZM444.312 185.589V251.563H510.285V185.589H444.312ZM511.285 185.589V251.563H577.259V185.589H511.285ZM577.259 651.725V717.699H511.285V651.725H577.259ZM577.259 585.645V650.725H511.285V585.645H577.259ZM577.259 518.671V584.645H511.285V518.671H577.259ZM577.259 452.59V517.671H511.285V452.59H577.259ZM577.259 385.617V451.59H511.285V385.617H577.259ZM577.259 318.643V384.617H511.285V318.643H577.259ZM577.259 252.563V317.643H511.285V252.563H577.259ZM42.8838 252.563V317.643H108.443V252.563H42.8838ZM109.443 252.563V317.643H175.417V252.563H109.443ZM176.417 252.563V317.643H242.391V252.563H176.417ZM243.391 252.563V317.643H309.364V252.563H243.391ZM310.364 252.563V317.643H376.338V252.563L310.364 252.563ZM377.338 252.563V317.643H443.312V252.563H377.338ZM444.312 252.563V317.643H510.285V252.563H444.312ZM510.285 651.725V717.699H444.312V651.725H510.285ZM510.285 585.645V650.725H444.312V585.645H510.285ZM510.285 518.671V584.645H444.312V518.671H510.285ZM510.285 452.59V517.671H444.312V452.59H510.285ZM510.285 385.617V451.59H444.312V385.617H510.285ZM510.285 318.643V384.617H444.312V318.643H510.285ZM42.8838 318.643V384.617H108.443V318.643H42.8838ZM109.443 318.643V384.617H175.417V318.643H109.443ZM176.417 318.643V384.617H242.391V318.643H176.417ZM243.391 318.643V384.617H309.364V318.643H243.391ZM310.364 318.643V384.617H376.338V318.643H310.364ZM377.338 318.643V384.617H443.312V318.643H377.338ZM443.312 651.725V717.699H377.338V651.725H443.312ZM443.312 585.645V650.725H377.338V585.645H443.312ZM443.312 518.671V584.645H377.338V518.671H443.312ZM443.312 452.59V517.671H377.338V452.59H443.312ZM443.312 385.617V451.59H377.338V385.617H443.312ZM42.8838 385.617V451.59H108.443V385.617H42.8838ZM109.443 385.617V451.59H175.417V385.617H109.443ZM176.417 385.617V451.59H242.391V385.617H176.417ZM243.391 385.617V451.59H309.364V385.617H243.391ZM310.364 385.617V451.59H376.338V385.617H310.364ZM376.338 651.725V717.699H310.364V651.725H376.338ZM376.338 585.645V650.725H310.364V585.645H376.338ZM376.338 518.671V584.645H310.364V518.671H376.338ZM376.338 452.59V517.671H310.364V452.59H376.338ZM42.8838 452.59V517.671H108.443V452.59H42.8838ZM109.443 452.59V517.671H175.417V452.59H109.443ZM176.417 452.59V517.671H242.391V452.59H176.417ZM243.391 452.59V517.671H309.364V452.59H243.391ZM309.364 651.725V717.699H243.391V651.725H309.364ZM309.364 585.645V650.725H243.391V585.645H309.364ZM309.364 518.671V584.645H243.391V518.671H309.364ZM42.8838 518.671V584.645H108.443V518.671H42.8838ZM109.443 518.671V584.645H175.417V518.671H109.443ZM176.417 518.671V584.645H242.391V518.671H176.417ZM242.391 651.725V717.699H176.417V651.725H242.391ZM242.391 585.645V650.725H176.417V585.645H242.391ZM175.417 717.699V651.725H109.443V717.699H175.417ZM108.443 717.699V651.725H42.8838V717.699H108.443ZM42.8838 650.725V585.645H108.443V650.725H42.8838ZM175.417 650.725V585.645H109.443V650.725H175.417Z" fill="url(#paint0_radial_240_10435)"/>
<defs>
<radialGradient id="paint0_radial_240_10435" cx="0" cy="0" r="1" gradientUnits="userSpaceOnUse" gradientTransform="translate(642.5 31.5563) rotate(90) scale(610.078 887.666)">
<stop stop-color="white"/>
<stop offset="1" stop-color="white" stop-opacity="0"/>
</radialGradient>
</defs>
</svg>
